<svg width="128" height="128" viewBox="0 0 128 128" fill="none" xmlns="http://www.w3.org/2000/svg">
  <!-- Background Circle -->
  <circle cx="64" cy="64" r="60" fill="#ef5746" stroke="#d63e2d" stroke-width="4"/>
  
  <!-- Inner Circle -->
  <circle cx="64" cy="64" r="48" fill="#ffffff" opacity="0.1"/>
  
  <!-- Hanger Icon -->
  <g transform="translate(64, 64)">
    <!-- Hanger Hook -->
    <path d="M-8 -20 C-8 -24, -4 -28, 0 -28 C4 -28, 8 -24, 8 -20" 
          stroke="#ffffff" stroke-width="3" fill="none" stroke-linecap="round"/>
    
    <!-- Hanger Body -->
    <path d="M8 -20 L8 -8 C8 -4, 4 0, 0 0 C-4 0, -8 -4, -8 -8 L-8 -20" 
          stroke="#ffffff" stroke-width="3" fill="none" stroke-linecap="round"/>
    
    <!-- Clothes -->
    <rect x="-12" y="0" width="24" height="16" rx="2" fill="#ffffff" opacity="0.9"/>
    <rect x="-10" y="2" width="20" height="12" rx="1" fill="#ef5746" opacity="0.8"/>
    
    <!-- AI Sparkles -->
    <g opacity="0.8">
      <circle cx="-20" cy="-15" r="2" fill="#ffffff"/>
      <circle cx="20" cy="-10" r="1.5" fill="#ffffff"/>
      <circle cx="-15" cy="20" r="1" fill="#ffffff"/>
      <circle cx="18" cy="15" r="2.5" fill="#ffffff"/>
    </g>
  </g>
  
  <!-- Brand Text -->
  <text x="64" y="100" text-anchor="middle" fill="#ffffff" font-family="Arial, sans-serif" font-size="12" font-weight="bold">HIMYT</text>
</svg>
